<svg width="24" height="24" viewBox="0 0 24 24" fill="none" xmlns="http://www.w3.org/2000/svg">
    <g clip-path="url(#clip0_13946_4048)">
        <circle cx="12" cy="12" r="12" fill="#DFDFF0"/>
        <path d="M17.2046 17.3864V16.13C17.2046 15.4636 16.9399 14.8244 16.4686 14.3532C15.9974 13.8819 15.3582 13.6172 14.6918 13.6172H9.66614C8.9997 13.6172 8.36055 13.8819 7.88931 14.3532C7.41806 14.8244 7.15332 15.4636 7.15332 16.13V17.3864" fill="#413D39"/>
        <path d="M17.2046 17.3864V16.13C17.2046 15.4636 16.9399 14.8244 16.4686 14.3532C15.9974 13.8819 15.3582 13.6172 14.6918 13.6172H9.66614C8.9997 13.6172 8.36055 13.8819 7.88931 14.3532C7.41806 14.8244 7.15332 15.4636 7.15332 16.13V17.3864H17.2046Z" stroke="#413D39" stroke-width="1.25641" stroke-linecap="round" stroke-linejoin="round"/>
        <path d="M12.1798 11.1038C13.5676 11.1038 14.6926 9.97874 14.6926 8.59095C14.6926 7.20315 13.5676 6.07812 12.1798 6.07812C10.792 6.07812 9.66699 7.20315 9.66699 8.59095C9.66699 9.97874 10.792 11.1038 12.1798 11.1038Z" fill="#413D39" stroke="#413D39" stroke-width="1.25641" stroke-linecap="round" stroke-linejoin="round"/>
    </g>
    <defs>
        <clipPath id="clip0_13946_4048">
            <rect width="24" height="24" fill="white"/>
        </clipPath>
    </defs>
</svg>
