<svg width="24" height="24" viewBox="0 0 24 24" fill="none" xmlns="http://www.w3.org/2000/svg">
    <g clip-path="url(#clip0_13946_4053)">
        <circle cx="12" cy="12" r="11.5862" fill="#413D39" stroke="#413D39" stroke-width="0.827586"/>
        <path d="M15.4385 4.73438C16.7026 5.56613 17.7432 6.56644 17.7432 8.85285C17.7432 12.5133 13.72 15.4812 8.75878 15.4812C7.74015 15.4812 6.75817 15.353 5.8458 15.1222L4.7832 17.5478C5.88977 17.8336 7.07694 17.9912 8.31542 17.9912C14.2183 17.9912 19 14.4626 19 10.1096C19 7.08674 17.8531 5.7017 15.4348 4.73438L15.4385 4.73438Z" fill="white"/>
        <path d="M14.6186 4.73413C14.6186 4.73413 16.7108 5.92497 16.6302 8.42024C16.5496 10.9155 13.8125 12.9271 10.5111 13.114C7.20977 13.3009 6.6748 12.9528 6.6748 12.9528L8.09648 10.6444C8.09648 10.6444 12.9881 11.5128 15.1536 8.94788C16.6302 7.20009 14.6186 4.73047 14.6186 4.73047V4.73413Z" fill="white"/>
        <path d="M8.74023 9.06537L9.49138 7.66934C9.49138 7.66934 12.2871 8.24827 13.6502 7.21499C14.4673 6.59575 13.7857 4.73438 13.7857 4.73438C13.7857 4.73438 15.9952 7.2846 13.1958 8.63667C10.7518 9.81651 8.74023 9.06537 8.74023 9.06537Z" fill="white"/>
    </g>
    <defs>
        <clipPath id="clip0_13946_4053">
            <rect width="24" height="24" fill="white"/>
        </clipPath>
    </defs>
</svg>
